<svg width="18" height="18" viewBox="0 0 24 24" fill="none" stroke="currentColor" stroke-width="2" stroke-linecap="round" stroke-linejoin="round" xmlns="http://www.w3.org/2000/svg">
  <path d="M12 2a2 2 0 0 1 2 2v2a2 2 0 0 1-2 2 2 2 0 0 1-2-2V4a2 2 0 0 1 2-2z" />
  <path d="M12 16a2 2 0 0 1 2 2v2a2 2 0 0 1-2 2 2 2 0 0 1-2-2v-2a2 2 0 0 1 2-2z" />
  <path d="M2 12a2 2 0 0 1 2-2h2a2 2 0 0 1 2 2 2 2 0 0 1-2 2H4a2 2 0 0 1-2-2z" />
  <path d="M16 12a2 2 0 0 1 2-2h2a2 2 0 0 1 2 2 2 2 0 0 1-2 2h-2a2 2 0 0 1-2-2z" />
  <line x1="12" y1="8" x2="12" y2="16" />
  <line x1="12" y1="16" x2="16" y2="12" />
  <line x1="12" y1="8" x2="8" y2="12" />
</svg>